<svg id="Group_7" data-name="Group 7" xmlns="http://www.w3.org/2000/svg" xmlns:xlink="http://www.w3.org/1999/xlink" width="12.773" height="11.077" viewBox="0 0 12.773 11.077">
  <defs>
    <clipPath id="clip-path">
      <path id="Path_4" data-name="Path 4" d="M1.72,5.538A3.819,3.819,0,1,1,5.538,9.357,3.819,3.819,0,0,1,1.72,5.538M5.538,0a5.538,5.538,0,1,0,5.538,5.538A5.538,5.538,0,0,0,5.538,0Z" fill="none"/>
    </clipPath>
    <linearGradient id="linear-gradient" y1="1" x2="0.017" y2="1" gradientUnits="objectBoundingBox">
      <stop offset="0" stop-color="#52c42b"/>
      <stop offset="1" stop-color="#1f9120"/>
    </linearGradient>
    <clipPath id="clip-path-2">
      <path id="Path_5" data-name="Path 5" d="M2.222,6.187a3.965,3.965,0,1,1,3.965,3.965A3.97,3.97,0,0,1,2.222,6.187M.8,6.187A5.392,5.392,0,1,0,6.188.8,5.4,5.4,0,0,0,.8,6.187" transform="translate(-0.796 -0.795)" fill="none"/>
    </clipPath>
    <linearGradient id="linear-gradient-2" x1="0.122" y1="0.878" x2="0.134" y2="0.878" xlink:href="#linear-gradient"/>
    <clipPath id="clip-path-3">
      <path id="Path_6" data-name="Path 6" d="M19.135,2.9a17.043,17.043,0,0,0-3.252,3.6,5.026,5.026,0,0,0-1.231-1.9c-.849-.762-2.944.579-1.985,1.3A4.389,4.389,0,0,1,13.95,7.063c.79,1.078.674,1.523.908,1.728A1.634,1.634,0,0,0,16.9,8.225c.732-.937,1.875-3.525,3.34-5.078A10.461,10.461,0,0,1,22.826.911c.1-.055.105-.094.013-.094-.3,0-1.608.42-3.7,2.086" transform="translate(-12.422 -0.817)" fill="none"/>
    </clipPath>
    <linearGradient id="linear-gradient-3" x1="-0.019" y1="0.991" x2="-0.006" y2="0.991" xlink:href="#linear-gradient"/>
  </defs>
  <g id="Group_2" data-name="Group 2">
    <g id="Group_1" data-name="Group 1" clip-path="url(#clip-path)">
      <rect id="Rectangle_12" data-name="Rectangle 12" width="11.077" height="11.077" transform="translate(0 0)" fill="url(#linear-gradient)"/>
    </g>
  </g>
  <g id="Group_4" data-name="Group 4" transform="translate(0.147 0.146)">
    <g id="Group_3" data-name="Group 3" clip-path="url(#clip-path-2)">
      <rect id="Rectangle_13" data-name="Rectangle 13" width="14.639" height="14.639" transform="translate(-4.545 2.491) rotate(-28.724)" fill="url(#linear-gradient-2)"/>
    </g>
  </g>
  <g id="Group_6" data-name="Group 6" transform="translate(2.289 0.151)">
    <g id="Group_5" data-name="Group 5" clip-path="url(#clip-path-3)">
      <rect id="Rectangle_14" data-name="Rectangle 14" width="13.836" height="13.836" transform="translate(-4.886 4.173) rotate(-45)" fill="url(#linear-gradient-3)"/>
    </g>
  </g>
</svg>
